<svg xmlns="http://www.w3.org/2000/svg" version="1.1" xmlns:xlink="http://www.w3.org/1999/xlink" xmlns:svgjs="http://svgjs.dev/svgjs" width="1500" height="367" viewBox="0 0 1500 367"><g transform="matrix(1,0,0,1,-0.9090909090909918,0.6232048461477575)"><svg viewBox="0 0 396 97" data-background-color="#e0ded5" preserveAspectRatio="xMidYMid meet" height="367" width="1500" xmlns="http://www.w3.org/2000/svg" xmlns:xlink="http://www.w3.org/1999/xlink"><g id="tight-bounds" transform="matrix(1,0,0,1,0.2400000000000091,-0.16471626723796362)"><svg viewBox="0 0 395.52 97.32943253447593" height="97.32943253447593" width="395.52"><g><svg viewBox="0 0 397.49759999999986 97.81607969714828" height="97.32943253447593" width="395.52"><g><svg viewBox="0 0 397.49759999999986 97.81607969714828" height="97.81607969714828" width="397.49759999999986"><g id="textblocktransform"><svg viewBox="0 0 397.49759999999986 97.81607969714828" height="97.81607969714828" width="397.49759999999986" id="textblock"><g><rect width="397.49759999999986" height="4.825205401297056" x="0" y="59.18991076681767" fill="#000000" opacity="1" stroke-width="0" stroke="transparent" fill-opacity="1" class="rect-qz-0" data-fill-palette-color="primary" rx="1%" id="qz-0" data-palette-color="#000000"></rect></g><g transform="matrix(1,0,0,1,0.9887999999999693,0)"><svg viewBox="0 0 395.5199999999999 53.505768278378724" height="53.505768278378724" width="395.5199999999999"><g transform="matrix(1,0,0,1,0,0)"><svg width="395.5199999999999" viewBox="3.56 -39.84 374.64 50.68000000000001" height="53.505768278378724" data-palette-color="#000000"><path d="M10.21-35.99L16.55-4.93 23.39-35.99 25.68-35.99 25.68-22.95 20.36 0.2 12.7 0.2 3.56-35.99 10.21-35.99ZM36.38-4.93L43.26-35.99 49.9-35.99 40.19 0.2 32.57 0.2 27.69-22.02 27.69-35.99 30.03-35.99 36.38-4.93ZM70.51-23.1L70.51-27.69Q73.19-27.54 75.39-26.39 77.59-25.24 79.07-23.36 80.56-21.48 81.39-18.99 82.22-16.5 82.22-13.67L82.22-13.67Q82.22-10.84 81.37-8.37 80.52-5.91 79-4.08 77.49-2.25 75.29-1.12 73.09 0 70.51 0.2L70.51 0.2 70.51-4.49Q72.95-5.03 74.48-7.57 76.02-10.11 76.02-13.67L76.02-13.67Q76.02-15.48 75.66-17.07 75.29-18.65 74.56-19.92 73.83-21.19 72.8-22.02 71.77-22.85 70.51-23.1L70.51-23.1ZM56.88-13.77L56.88-13.77Q56.88-16.6 57.71-19.04 58.54-21.48 60.08-23.32 61.62-25.15 63.77-26.27 65.92-27.39 68.5-27.64L68.5-27.64 68.5-23.1Q66.06-22.56 64.6-20.02 63.13-17.48 63.13-13.92L63.13-13.92Q63.13-12.11 63.5-10.5 63.86-8.89 64.55-7.62 65.23-6.35 66.23-5.52 67.23-4.69 68.5-4.49L68.5-4.49 68.5 0.2Q65.82 0 63.67-1.15 61.52-2.29 60.01-4.15 58.49-6.01 57.69-8.5 56.88-10.99 56.88-13.77ZM89.89-27.54L95.16-27.54 95.8-24.71 95.8-9.77 95.8-9.67 95.8 0 89.89 0 89.89-27.54ZM97.8-21.34L97.8-26.32Q99.02-27 100.73-27.37 102.44-27.73 105.37-27.73L105.37-27.73 105.37-21.58Q104-21.97 102.05-22.02L102.05-22.02Q100.97-22.02 99.87-21.85 98.77-21.68 97.8-21.34L97.8-21.34ZM133.1-27.54L123.43-13.82 134.37 0 127.63 0 119.62-10.55 119.62-17.33 126.46-27.54 133.1-27.54ZM117.62 0L111.66 0 111.66-37.94 117.62-37.94 117.62 0ZM157.22-30.42L157.22-30.42Q156.97-30.52 156.63-30.76 156.29-31.01 155.65-31.23 155.02-31.45 154.04-31.59 153.07-31.74 151.55-31.64L151.55-31.64 151.55-36.57Q153.7-36.52 155.92-36.11 158.14-35.69 159.51-34.81L159.51-34.81Q159.22-34.18 158.83-33.42 158.44-32.67 158.1-32.01 157.75-31.35 157.51-30.91 157.27-30.47 157.22-30.42ZM140.37-26.51L140.37-26.51Q140.37-28.66 141.1-30.37 141.84-32.08 143.08-33.37 144.33-34.67 146.01-35.42 147.7-36.18 149.55-36.43L149.55-36.43 149.55-31.3Q147.99-30.76 146.96-29.42 145.94-28.08 145.94-26.71L145.94-26.71Q145.94-24.8 146.96-23.63 147.99-22.46 149.55-21.58L149.55-21.58 149.55-16.02Q147.94-16.8 146.33-17.7 144.72-18.6 143.4-19.82 142.08-21.04 141.23-22.66 140.37-24.27 140.37-26.51ZM140.13-2.39L141.15-6.59Q141.84-6.2 142.89-5.83 143.94-5.47 145.06-5.15 146.18-4.83 147.3-4.64 148.43-4.44 149.4-4.44L149.4-4.44 149.55-4.44 149.55 0.2 149.45 0.2Q148.28 0.2 147.04 0.07 145.79-0.05 144.52-0.34 143.25-0.63 142.1-1.15 140.96-1.66 140.13-2.39L140.13-2.39ZM151.55-14.89L151.55-20.61Q153.16-19.87 154.85-19.04 156.53-18.21 157.9-17.02 159.27-15.82 160.15-14.11 161.03-12.4 161.03-9.86L161.03-9.86Q161.03-8.11 160.37-6.45 159.71-4.79 158.51-3.44 157.31-2.1 155.56-1.17 153.8-0.24 151.55 0.05L151.55 0.05 151.55-4.64Q155.56-5.62 155.56-9.96L155.56-9.96Q155.56-11.67 154.43-12.79 153.31-13.92 151.55-14.89L151.55-14.89ZM166.83 0L166.83-37.94 172.74-37.94 172.74 0 166.83 0ZM187.34-24.51L187.34-24.51Q188.17-23.68 188.63-22.58 189.1-21.48 189.32-20.29 189.54-19.09 189.59-17.87 189.64-16.65 189.64-15.48L189.64-15.48 189.64-0.98 189.64 0 183.68 0 183.68-14.99Q183.68-16.65 183.53-18.16 183.39-19.68 182.85-20.85 182.31-22.02 181.38-22.68 180.46-23.34 178.8-23.34L178.8-23.34Q178.11-23.34 176.97-23.12 175.82-22.9 174.74-22.41L174.74-22.41 174.74-26.17Q176.06-26.86 177.6-27.34 179.14-27.83 180.6-27.83L180.6-27.83Q182.8-27.83 184.31-26.93 185.83-26.03 187.34-24.51ZM209.51-23.1L209.51-27.69Q212.19-27.54 214.39-26.39 216.59-25.24 218.08-23.36 219.57-21.48 220.4-18.99 221.23-16.5 221.23-13.67L221.23-13.67Q221.23-10.84 220.37-8.37 219.52-5.91 218-4.08 216.49-2.25 214.29-1.12 212.09 0 209.51 0.2L209.51 0.2 209.51-4.49Q211.95-5.03 213.49-7.57 215.02-10.11 215.02-13.67L215.02-13.67Q215.02-15.48 214.66-17.07 214.29-18.65 213.56-19.92 212.83-21.19 211.8-22.02 210.78-22.85 209.51-23.1L209.51-23.1ZM195.88-13.77L195.88-13.77Q195.88-16.6 196.71-19.04 197.54-21.48 199.08-23.32 200.62-25.15 202.77-26.27 204.92-27.39 207.5-27.64L207.5-27.64 207.5-23.1Q205.06-22.56 203.6-20.02 202.13-17.48 202.13-13.92L202.13-13.92Q202.13-12.11 202.5-10.5 202.87-8.89 203.55-7.62 204.23-6.35 205.23-5.52 206.24-4.69 207.5-4.49L207.5-4.49 207.5 0.2Q204.82 0 202.67-1.15 200.52-2.29 199.01-4.15 197.49-6.01 196.69-8.5 195.88-10.99 195.88-13.77ZM228.89-27.54L234.21-27.54 234.85-24.76 234.85 10.84 228.89 10.84 228.89-27.54ZM252.96-19.19L252.96-19.19Q253.55-16.94 253.55-14.16L253.55-14.16Q253.55-11.38 252.89-8.76 252.23-6.15 250.89-4.15 249.54-2.15 247.52-0.95 245.49 0.24 242.76 0.24L242.76 0.24Q241.05 0.24 239.51-0.15 237.97-0.54 236.85-1.17L236.85-1.17 236.85-6.25Q238.46-4.35 240.8-4.35L240.8-4.35Q242.27-4.35 243.46-5.08 244.66-5.81 245.51-7.06 246.37-8.3 246.86-10.03 247.35-11.77 247.35-13.72L247.35-13.72Q247.35-15.63 246.91-17.33 246.47-19.04 245.66-20.36 244.86-21.68 243.71-22.46 242.56-23.24 241.05-23.24L241.05-23.24Q239.78-23.24 238.73-22.73 237.68-22.22 236.85-21.29L236.85-21.29 236.85-26.46Q237.97-27.1 239.34-27.44 240.71-27.78 242.17-27.78L242.17-27.78Q243.78-27.78 245.44-27.34 247.1-26.9 248.54-25.88 249.98-24.85 251.15-23.19 252.33-21.53 252.96-19.19ZM266.14-35.99L272.49-4.93 279.33-35.99 281.62-35.99 281.62-22.95 276.3 0.2 268.63 0.2 259.5-35.99 266.14-35.99ZM292.31-4.93L299.2-35.99 305.84-35.99 296.12 0.2 288.51 0.2 283.62-22.02 283.62-35.99 285.97-35.99 292.31-4.93ZM319.41-27.54L319.41 0 313.45 0 313.45-27.54 319.41-27.54ZM319.95-36.33L319.95-36.33Q319.95-34.86 318.92-33.86 317.9-32.86 316.43-32.86L316.43-32.86Q314.97-32.86 313.97-33.89 312.97-34.91 312.97-36.33L312.97-36.33Q312.97-37.79 313.99-38.82 315.02-39.84 316.43-39.84L316.43-39.84Q317.9-39.84 318.92-38.82 319.95-37.79 319.95-36.33ZM327.07-19.68L327.07-19.68Q327.07-21.53 327.76-23.02 328.44-24.51 329.66-25.56 330.88-26.61 332.42-27.22 333.96-27.83 335.62-27.98L335.62-27.98 335.62-23.1Q334.35-22.85 333.64-22.07 332.93-21.29 332.93-19.87L332.93-19.87Q332.93-18.7 333.69-17.99 334.45-17.29 335.62-16.75L335.62-16.75 335.62-11.52Q334.79-11.77 333.93-12.08 333.08-12.4 332.25-12.79L332.25-12.79Q329.66-14.16 328.37-15.67 327.07-17.19 327.07-19.68ZM345.29-25.78L343.38-21.73Q342.06-22.41 340.58-22.75 339.09-23.1 337.62-23.19L337.62-23.19 337.62-28.03Q339.82-27.93 341.67-27.42 343.53-26.9 345.29-25.78L345.29-25.78ZM327.17-2.2L329.66-6.15Q330.64-5.47 331.98-4.88 333.32-4.3 335.38-4.3L335.38-4.3 335.62-4.3 335.62 0.24Q334.4 0.24 333.37 0.17 332.35 0.1 331.35-0.17 330.35-0.44 329.32-0.93 328.3-1.42 327.17-2.2L327.17-2.2ZM337.62-10.79L337.62-15.97Q339.09-15.48 340.6-14.89 342.11-14.31 343.36-13.43 344.6-12.55 345.41-11.25 346.22-9.96 346.22-8.01L346.22-8.01Q346.22-6.1 345.53-4.69 344.85-3.27 343.7-2.25 342.55-1.22 340.99-0.63 339.43-0.05 337.62 0.15L337.62 0.15 337.62-4.49Q339.28-4.79 340.18-5.54 341.09-6.3 341.09-7.57L341.09-7.57Q341.09-8.84 340.09-9.55 339.09-10.25 337.62-10.79L337.62-10.79ZM366.67-23.19L366.67-27.78Q369.31-27.54 371.43-26.37 373.56-25.2 375.07-23.34 376.58-21.48 377.39-19.09 378.2-16.7 378.2-14.11L378.2-14.11Q378.2-12.94 378.05-11.77L378.05-11.77 361.3-11.77 361.3-16.06 372.58-16.06Q372.58-17.33 372.16-18.51 371.75-19.68 370.94-20.68 370.14-21.68 369.06-22.36 367.99-23.05 366.67-23.19L366.67-23.19ZM366.48-4.59L366.48-4.59Q367.01-4.59 367.82-4.71 368.62-4.83 369.53-5.15 370.43-5.47 371.33-5.96 372.24-6.45 372.92-7.13L372.92-7.13 375.07-3.86Q373.46-1.86 371.31-0.83 369.16 0.2 365.84 0.2L365.84 0.2Q363.16 0.2 360.81-0.9 358.47-2 356.81-3.91 355.15-5.81 354.17-8.35 353.2-10.89 353.2-13.82L353.2-13.82Q353.2-16.6 354.1-19.09 355-21.58 356.56-23.46 358.13-25.34 360.2-26.51 362.28-27.69 364.67-27.83L364.67-27.83 364.67-23.14Q362.86-22.8 361.69-21.68 360.52-20.56 359.86-19.12 359.2-17.68 358.93-16.16 358.66-14.65 358.66-13.57L358.66-13.57Q358.66-11.67 359.13-10.03 359.59-8.4 360.57-7.2 361.54-6.01 362.99-5.3 364.43-4.59 366.48-4.59Z" opacity="1" transform="matrix(1,0,0,1,0,0)" fill="#000000" class="wordmark-text-0" data-fill-palette-color="primary" id="text-0"></path></svg></g></svg></g><g transform="matrix(1,0,0,1,0,69.69925865655367)"><svg viewBox="0 0 395.5199999999999 28.116821040594616" height="28.116821040594616" width="395.5199999999999"><g transform="matrix(1,0,0,1,0,0)"><svg width="395.5199999999999" viewBox="3.8 -31.5 524.62 37.3" height="28.116821040594616" data-palette-color="#000000"><path d="M11.5 0L3.8 0 3.8-29.55 11.95-29.55Q14.25-29.55 15.83-28.48 17.4-27.4 17.4-24.7L17.4-24.7 17.4-20.95Q17.4-18.85 16.2-17.4 15-15.95 12.9-15.6L12.9-15.6Q15.15-15.6 16.4-14.15 17.65-12.7 17.65-10.45L17.65-10.45 17.65-6Q17.65-3.4 16.88-2.13 16.1-0.85 14.73-0.43 13.35 0 11.5 0L11.5 0ZM4.6-28.75L4.6-15.95 10.9-15.95Q13.7-15.95 15.15-17.3 16.6-18.65 16.6-21L16.6-21 16.6-24.8Q16.6-26.75 15.28-27.75 13.95-28.75 11.95-28.75L11.95-28.75 4.6-28.75ZM4.6-15.15L4.6-0.8 11.35-0.8Q13.1-0.8 14.33-1.18 15.55-1.55 16.2-2.73 16.85-3.9 16.85-6.25L16.85-6.25 16.85-10.7Q16.85-13.35 15.2-14.25 13.55-15.15 11.15-15.15L11.15-15.15 4.6-15.15ZM29.65 0.35L29.65 0.35Q27.5 0.35 26.27-0.23 25.05-0.8 24.5-1.75 23.95-2.7 23.8-3.88 23.65-5.05 23.65-6.2L23.65-6.2 23.65-18.6Q23.65-19.75 23.8-20.9 23.95-22.05 24.52-23.03 25.1-24 26.35-24.58 27.6-25.15 29.85-25.15L29.85-25.15Q32.6-25.15 33.85-24.15 35.1-23.15 35.47-21.65 35.85-20.15 35.85-18.6L35.85-18.6 35.85-6.2Q35.85-4.65 35.47-3.15 35.1-1.65 33.8-0.65 32.5 0.35 29.65 0.35ZM29.65-0.45L29.65-0.45Q32.25-0.45 33.37-1.38 34.5-2.3 34.77-3.68 35.05-5.05 35.05-6.35L35.05-6.35 35.05-18.45Q35.05-19.8 34.77-21.15 34.5-22.5 33.42-23.43 32.35-24.35 29.85-24.35L29.85-24.35Q27.85-24.35 26.72-23.8 25.6-23.25 25.12-22.38 24.65-21.5 24.55-20.48 24.45-19.45 24.45-18.45L24.45-18.45 24.45-6.35Q24.45-5.35 24.55-4.33 24.65-3.3 25.1-2.43 25.55-1.55 26.62-1 27.7-0.45 29.65-0.45ZM47.75 0.35L47.75 0.35Q45.59 0.35 44.37-0.23 43.15-0.8 42.59-1.75 42.05-2.7 41.9-3.88 41.75-5.05 41.75-6.2L41.75-6.2 41.75-18.6Q41.75-19.75 41.9-20.9 42.05-22.05 42.62-23.03 43.2-24 44.45-24.58 45.7-25.15 47.95-25.15L47.95-25.15Q50.7-25.15 51.95-24.15 53.2-23.15 53.57-21.65 53.95-20.15 53.95-18.6L53.95-18.6 53.95-6.2Q53.95-4.65 53.57-3.15 53.2-1.65 51.9-0.65 50.59 0.35 47.75 0.35ZM47.75-0.45L47.75-0.45Q50.34-0.45 51.47-1.38 52.59-2.3 52.87-3.68 53.15-5.05 53.15-6.35L53.15-6.35 53.15-18.45Q53.15-19.8 52.87-21.15 52.59-22.5 51.52-23.43 50.45-24.35 47.95-24.35L47.95-24.35Q45.95-24.35 44.82-23.8 43.7-23.25 43.22-22.38 42.75-21.5 42.65-20.48 42.55-19.45 42.55-18.45L42.55-18.45 42.55-6.35Q42.55-5.35 42.65-4.33 42.75-3.3 43.2-2.43 43.65-1.55 44.72-1 45.8-0.45 47.75-0.45ZM61.09 0L60.29 0 60.29-31.5 61.09-31.5 61.09-14.8 62.99-14.8 69.84-24.75 70.79-24.75 63.64-14.35 71.09 0 70.24 0 62.94-14 61.09-14 61.09 0ZM74.74 4.35L74.09 4.35Q74.39 3.8 74.87 2.8 75.34 1.8 75.34 1.15L75.34 1.15Q75.34 0.65 74.97 0.45 74.59 0.25 74.59-0.5L74.59-0.5Q74.59-0.85 74.82-1.15 75.04-1.45 75.44-1.45L75.44-1.45Q75.99-1.45 76.24-1.07 76.49-0.7 76.49-0.2L76.49-0.2Q76.49 0.8 75.94 2.1 75.39 3.4 74.74 4.35L74.74 4.35ZM100.89 0L90.19 0 90.19-29.55 90.98-29.55 90.98-0.8 100.89-0.8 100.89 0ZM110.03 0.35L110.03 0.35Q107.88 0.35 106.66-0.23 105.43-0.8 104.88-1.75 104.33-2.7 104.18-3.88 104.03-5.05 104.03-6.2L104.03-6.2 104.03-18.6Q104.03-20.15 104.38-21.65 104.73-23.15 106.01-24.15 107.28-25.15 110.03-25.15L110.03-25.15Q112.83-25.15 114.08-24.2 115.33-23.25 115.66-21.75 115.98-20.25 115.98-18.6L115.98-18.6 115.98-13.15 104.83-13.15 104.83-6.35Q104.83-4.9 105.11-3.53 105.38-2.15 106.48-1.3 107.58-0.45 110.03-0.45L110.03-0.45Q112.48-0.45 113.56-1.3 114.63-2.15 114.91-3.5 115.18-4.85 115.18-6.35L115.18-6.35 115.18-8.35 115.98-8.35 115.98-6.2Q115.98-4.65 115.68-3.15 115.38-1.65 114.13-0.65 112.88 0.35 110.03 0.35ZM104.83-18.15L104.83-13.95 115.18-13.95 115.18-18.15Q115.18-19.9 114.93-21.3 114.68-22.7 113.61-23.53 112.53-24.35 110.03-24.35L110.03-24.35Q107.83-24.35 106.71-23.58 105.58-22.8 105.21-21.43 104.83-20.05 104.83-18.15L104.83-18.15ZM126.83 0.2L126.83 0.2Q125.68 0.2 124.46-0.2 123.23-0.6 122.38-1.83 121.53-3.05 121.53-5.6L121.53-5.6 121.53-7.3Q121.53-8.9 122.26-10.1 122.98-11.3 124.01-12.13 125.03-12.95 126.01-13.48 126.98-14 127.43-14.25L127.43-14.25Q129.43-15.35 130.56-16.18 131.68-17 132.18-17.88 132.68-18.75 132.68-20L132.68-20 132.68-20.7Q132.68-22.4 131.96-23.15 131.23-23.9 130.13-24.1 129.03-24.3 127.88-24.3L127.88-24.3Q125.68-24.3 124.61-23.55 123.53-22.8 123.21-21.55 122.88-20.3 122.88-18.75L122.88-18.75 122.88-16.7 122.08-16.7 122.08-18.85Q122.08-21.75 123.23-23.43 124.38-25.1 127.88-25.1L127.88-25.1Q130.58-25.1 131.76-24.4 132.93-23.7 133.21-22.58 133.48-21.45 133.48-20.1L133.48-20.1 133.48 0 132.73 0 132.73-3.65Q132.13-1.9 130.61-0.85 129.08 0.2 126.83 0.2ZM126.98-0.6L126.98-0.6Q129.18-0.6 130.41-1.55 131.63-2.5 132.16-4.15 132.68-5.8 132.68-7.85L132.68-7.85 132.68-17.05Q131.88-15.95 130.51-15.13 129.13-14.3 127.68-13.45L127.68-13.45Q126.43-12.75 125.21-11.98 123.98-11.2 123.16-10 122.33-8.8 122.33-6.9L122.33-6.9 122.33-5.6Q122.33-3.25 123.08-2.2 123.83-1.15 124.93-0.88 126.03-0.6 126.98-0.6ZM140.73 0L139.93 0 139.93-24.75 140.63-24.75 140.73-22.25Q141.28-23.4 142.55-24.28 143.83-25.15 146.18-25.15L146.18-25.15Q147.23-25.15 148.03-25L148.03-25 148.03-24.2Q147.23-24.35 146.18-24.35L146.18-24.35Q143.43-24.35 142.08-22.9 140.73-21.45 140.73-19.45L140.73-19.45 140.73 0ZM152.17 0L151.38 0 151.38-24.75 152.07-24.75 152.17-22.15Q152.72-23.3 154-24.23 155.28-25.15 157.63-25.15L157.63-25.15Q159.72-25.15 160.95-24.58 162.17-24 162.72-23.03 163.28-22.05 163.42-20.9 163.57-19.75 163.57-18.6L163.57-18.6 163.57 0 162.78 0 162.78-18.15Q162.78-19.65 162.53-21.08 162.28-22.5 161.2-23.43 160.13-24.35 157.63-24.35L157.63-24.35Q154.88-24.35 153.53-22.85 152.17-21.35 152.17-19.2L152.17-19.2 152.17 0ZM169.32 4.35L168.67 4.35Q168.97 3.8 169.45 2.8 169.92 1.8 169.92 1.15L169.92 1.15Q169.92 0.65 169.55 0.45 169.17 0.25 169.17-0.5L169.17-0.5Q169.17-0.85 169.4-1.15 169.62-1.45 170.02-1.45L170.02-1.45Q170.57-1.45 170.82-1.07 171.07-0.7 171.07-0.2L171.07-0.2Q171.07 0.8 170.52 2.1 169.97 3.4 169.32 4.35L169.32 4.35ZM191.07 0.6L191.07 0.6Q189.17 0.6 187.64 0.18 186.12-0.25 185.22-1.65 184.32-3.05 184.32-5.9L184.32-5.9 184.32-23.45Q184.32-26.35 185.22-27.73 186.12-29.1 187.69-29.53 189.27-29.95 191.17-29.95L191.17-29.95Q193.12-29.95 194.64-29.5 196.17-29.05 197.07-27.68 197.97-26.3 197.97-23.45L197.97-23.45 197.97-19.05 197.17-19.05 197.17-23.65Q197.17-26.05 196.39-27.23 195.62-28.4 194.27-28.78 192.92-29.15 191.12-29.15L191.12-29.15Q189.27-29.15 187.92-28.73 186.57-28.3 185.84-27.08 185.12-25.85 185.12-23.35L185.12-23.35 185.12-5.8Q185.12-3.4 185.94-2.2 186.77-1 188.14-0.6 189.52-0.2 191.12-0.2L191.12-0.2Q192.87-0.2 194.24-0.6 195.62-1 196.39-2.2 197.17-3.4 197.17-5.8L197.17-5.8 197.17-9.45 197.97-9.45 197.97-5.9Q197.97-3 197.07-1.63 196.17-0.25 194.62 0.18 193.07 0.6 191.07 0.6ZM210.12 0.35L210.12 0.35Q207.97 0.35 206.74-0.23 205.52-0.8 204.97-1.75 204.42-2.7 204.27-3.88 204.12-5.05 204.12-6.2L204.12-6.2 204.12-18.6Q204.12-19.75 204.27-20.9 204.42-22.05 204.99-23.03 205.57-24 206.82-24.58 208.07-25.15 210.32-25.15L210.32-25.15Q213.07-25.15 214.32-24.15 215.57-23.15 215.94-21.65 216.32-20.15 216.32-18.6L216.32-18.6 216.32-6.2Q216.32-4.65 215.94-3.15 215.57-1.65 214.27-0.65 212.97 0.35 210.12 0.35ZM210.12-0.45L210.12-0.45Q212.72-0.45 213.84-1.38 214.97-2.3 215.24-3.68 215.52-5.05 215.52-6.35L215.52-6.35 215.52-18.45Q215.52-19.8 215.24-21.15 214.97-22.5 213.89-23.43 212.82-24.35 210.32-24.35L210.32-24.35Q208.32-24.35 207.19-23.8 206.07-23.25 205.59-22.38 205.12-21.5 205.02-20.48 204.92-19.45 204.92-18.45L204.92-18.45 204.92-6.35Q204.92-5.35 205.02-4.33 205.12-3.3 205.57-2.43 206.02-1.55 207.09-1 208.17-0.45 210.12-0.45ZM223.46 0L222.66 0 222.66-24.75 223.36-24.75 223.46-22.15Q224.01-23.3 225.29-24.23 226.56-25.15 228.91-25.15L228.91-25.15Q231.01-25.15 232.24-24.58 233.46-24 234.01-23.03 234.56-22.05 234.71-20.9 234.86-19.75 234.86-18.6L234.86-18.6 234.86 0 234.06 0 234.06-18.15Q234.06-19.65 233.81-21.08 233.56-22.5 232.49-23.43 231.41-24.35 228.91-24.35L228.91-24.35Q226.16-24.35 224.81-22.85 223.46-21.35 223.46-19.2L223.46-19.2 223.46 0ZM242.11 0L241.31 0 241.31-24.75 242.01-24.75 242.11-22.15Q242.66-23.3 243.94-24.23 245.21-25.15 247.56-25.15L247.56-25.15Q249.66-25.15 250.89-24.58 252.11-24 252.66-23.03 253.21-22.05 253.36-20.9 253.51-19.75 253.51-18.6L253.51-18.6 253.51 0 252.71 0 252.71-18.15Q252.71-19.65 252.46-21.08 252.21-22.5 251.14-23.43 250.06-24.35 247.56-24.35L247.56-24.35Q244.81-24.35 243.46-22.85 242.11-21.35 242.11-19.2L242.11-19.2 242.11 0ZM265.51 0.35L265.51 0.35Q263.36 0.35 262.13-0.23 260.91-0.8 260.36-1.75 259.81-2.7 259.66-3.88 259.51-5.05 259.51-6.2L259.51-6.2 259.51-18.6Q259.51-20.15 259.86-21.65 260.21-23.15 261.48-24.15 262.76-25.15 265.51-25.15L265.51-25.15Q268.31-25.15 269.56-24.2 270.81-23.25 271.13-21.75 271.46-20.25 271.46-18.6L271.46-18.6 271.46-13.15 260.31-13.15 260.31-6.35Q260.31-4.9 260.58-3.53 260.86-2.15 261.96-1.3 263.06-0.45 265.51-0.45L265.51-0.45Q267.96-0.45 269.03-1.3 270.11-2.15 270.38-3.5 270.66-4.85 270.66-6.35L270.66-6.35 270.66-8.35 271.46-8.35 271.46-6.2Q271.46-4.65 271.16-3.15 270.86-1.65 269.61-0.65 268.36 0.35 265.51 0.35ZM260.31-18.15L260.31-13.95 270.66-13.95 270.66-18.15Q270.66-19.9 270.41-21.3 270.16-22.7 269.08-23.53 268.01-24.35 265.51-24.35L265.51-24.35Q263.31-24.35 262.18-23.58 261.06-22.8 260.68-21.43 260.31-20.05 260.31-18.15L260.31-18.15ZM283.25 0.35L283.25 0.35Q281.11 0.35 279.88-0.23 278.66-0.8 278.11-1.75 277.56-2.7 277.41-3.88 277.25-5.05 277.25-6.2L277.25-6.2 277.25-18.6Q277.25-19.75 277.41-20.9 277.56-22.05 278.11-23.03 278.66-24 279.88-24.58 281.11-25.15 283.25-25.15L283.25-25.15Q285.36-25.15 286.58-24.58 287.81-24 288.36-23.03 288.91-22.05 289.06-20.9 289.2-19.75 289.2-18.6L289.2-18.6 289.2-16.4 288.41-16.4 288.41-18.45Q288.41-19.8 288.13-21.15 287.86-22.5 286.78-23.43 285.7-24.35 283.25-24.35L283.25-24.35Q280.81-24.35 279.7-23.43 278.61-22.5 278.33-21.15 278.06-19.8 278.06-18.45L278.06-18.45 278.06-6.35Q278.06-5.05 278.33-3.68 278.61-2.3 279.7-1.38 280.81-0.45 283.25-0.45L283.25-0.45Q285.7-0.45 286.78-1.38 287.86-2.3 288.13-3.68 288.41-5.05 288.41-6.35L288.41-6.35 288.41-8.35 289.2-8.35 289.2-6.2Q289.2-4.65 288.91-3.15 288.61-1.65 287.36-0.65 286.11 0.35 283.25 0.35ZM298.6 0L298.6 0Q296.65 0 295.8-1.18 294.95-2.35 294.95-4.65L294.95-4.65 294.95-23.95 293.05-23.95 293.05-24.65 294.95-24.75 295.1-29.6 295.75-29.6 295.75-24.75 301.55-24.75 301.55-23.95 295.75-23.95 295.75-4.4Q295.75-3 296.3-1.88 296.85-0.75 298.55-0.75L298.55-0.75Q299.25-0.75 299.95-0.83 300.65-0.9 301.55-1L301.55-1 301.55-0.2Q301.2-0.15 300.38-0.08 299.55 0 298.6 0ZM305.45-15.85L305.45-15.85Q304.65-15.85 304.65-16.65L304.65-16.65Q304.65-17.45 305.45-17.45L305.45-17.45Q306.25-17.45 306.25-16.65L306.25-16.65Q306.25-15.85 305.45-15.85ZM305.45 0.15L305.45 0.15Q304.65 0.15 304.65-0.65L304.65-0.65Q304.65-1.45 305.45-1.45L305.45-1.45Q306.25-1.45 306.25-0.65L306.25-0.65Q306.25 0.15 305.45 0.15ZM323.45 0L322.65 0 317.65-29.55 318.45-29.55 323.1-2.25 328.9-29.55 329.7-29.55 335.4-1.75 340.2-29.55 341-29.55 335.9 0 334.95 0 329.3-27.65 323.45 0ZM350.84 0.35L350.84 0.35Q348.69 0.35 347.47-0.23 346.24-0.8 345.69-1.75 345.14-2.7 344.99-3.88 344.84-5.05 344.84-6.2L344.84-6.2 344.84-18.6Q344.84-19.75 344.99-20.9 345.14-22.05 345.72-23.03 346.29-24 347.54-24.58 348.79-25.15 351.04-25.15L351.04-25.15Q353.79-25.15 355.04-24.15 356.29-23.15 356.67-21.65 357.04-20.15 357.04-18.6L357.04-18.6 357.04-6.2Q357.04-4.65 356.67-3.15 356.29-1.65 354.99-0.65 353.69 0.35 350.84 0.35ZM350.84-0.45L350.84-0.45Q353.44-0.45 354.57-1.38 355.69-2.3 355.97-3.68 356.24-5.05 356.24-6.35L356.24-6.35 356.24-18.45Q356.24-19.8 355.97-21.15 355.69-22.5 354.62-23.43 353.54-24.35 351.04-24.35L351.04-24.35Q349.04-24.35 347.92-23.8 346.79-23.25 346.32-22.38 345.84-21.5 345.74-20.48 345.64-19.45 345.64-18.45L345.64-18.45 345.64-6.35Q345.64-5.35 345.74-4.33 345.84-3.3 346.29-2.43 346.74-1.55 347.82-1 348.89-0.45 350.84-0.45ZM364.19 0L363.39 0 363.39-24.75 364.09-24.75 364.19-22.25Q364.74-23.4 366.02-24.28 367.29-25.15 369.64-25.15L369.64-25.15Q370.69-25.15 371.49-25L371.49-25 371.49-24.2Q370.69-24.35 369.64-24.35L369.64-24.35Q366.89-24.35 365.54-22.9 364.19-21.45 364.19-19.45L364.19-19.45 364.19 0ZM375.64 0L374.84 0 374.84-31.5 375.64-31.5 375.64-14.8 377.54-14.8 384.39-24.75 385.34-24.75 378.19-14.35 385.64 0 384.79 0 377.49-14 375.64-14 375.64 0ZM394.09 0.3L394.09 0.3Q391.49 0.3 389.84-0.95 388.19-2.2 388.19-4.95L388.19-4.95 388.19-8.3 388.99-8.3 388.99-4.95Q388.99-2.75 390.41-1.63 391.84-0.5 394.09-0.5L394.09-0.5Q396.44-0.5 397.86-1.5 399.29-2.5 399.29-4.8L399.29-4.8 399.29-6.7Q399.29-8.6 398.49-9.68 397.69-10.75 396.46-11.43 395.24-12.1 393.84-12.7L393.84-12.7Q392.29-13.4 390.99-14.1 389.69-14.8 388.91-15.83 388.14-16.85 388.14-18.5L388.14-18.5 388.14-20.2Q388.14-22.3 389.74-23.7 391.34-25.1 394.19-25.1L394.19-25.1Q396.79-25.1 398.46-23.93 400.14-22.75 400.14-20.05L400.14-20.05 400.14-16.8 399.34-16.8 399.34-19.75Q399.34-22.15 398.01-23.23 396.69-24.3 394.19-24.3L394.19-24.3Q391.69-24.3 390.31-23.05 388.94-21.8 388.94-19.75L388.94-19.75 388.94-18.85Q388.94-17.2 389.79-16.2 390.64-15.2 391.84-14.58 393.04-13.95 394.09-13.45L394.09-13.45Q395.59-12.8 396.96-12.03 398.34-11.25 399.21-10.03 400.09-8.8 400.09-6.7L400.09-6.7 400.09-4.8Q400.09-2.85 399.24-1.75 398.39-0.65 397.04-0.18 395.69 0.3 394.09 0.3ZM406.38 0L405.58 0 405.58-31.5 406.38-31.5 406.38-22.25Q406.93-23.4 408.21-24.28 409.48-25.15 411.83-25.15L411.83-25.15Q413.93-25.15 415.16-24.58 416.38-24 416.93-23.03 417.48-22.05 417.63-20.9 417.78-19.75 417.78-18.6L417.78-18.6 417.78 0 416.98 0 416.98-18.15Q416.98-19.65 416.73-21.08 416.48-22.5 415.41-23.43 414.33-24.35 411.83-24.35L411.83-24.35Q409.08-24.35 407.83-22.98 406.58-21.6 406.38-19.45L406.38-19.45 406.38 0ZM429.78 0.35L429.78 0.35Q427.63 0.35 426.41-0.23 425.18-0.8 424.63-1.75 424.08-2.7 423.93-3.88 423.78-5.05 423.78-6.2L423.78-6.2 423.78-18.6Q423.78-19.75 423.93-20.9 424.08-22.05 424.66-23.03 425.23-24 426.48-24.58 427.73-25.15 429.98-25.15L429.98-25.15Q432.73-25.15 433.98-24.15 435.23-23.15 435.61-21.65 435.98-20.15 435.98-18.6L435.98-18.6 435.98-6.2Q435.98-4.65 435.61-3.15 435.23-1.65 433.93-0.65 432.63 0.35 429.78 0.35ZM429.78-0.45L429.78-0.45Q432.38-0.45 433.51-1.38 434.63-2.3 434.91-3.68 435.18-5.05 435.18-6.35L435.18-6.35 435.18-18.45Q435.18-19.8 434.91-21.15 434.63-22.5 433.56-23.43 432.48-24.35 429.98-24.35L429.98-24.35Q427.98-24.35 426.86-23.8 425.73-23.25 425.26-22.38 424.78-21.5 424.68-20.48 424.58-19.45 424.58-18.45L424.58-18.45 424.58-6.35Q424.58-5.35 424.68-4.33 424.78-3.3 425.23-2.43 425.68-1.55 426.76-1 427.83-0.45 429.78-0.45ZM443.13 5.8L442.33 5.8 442.33-24.75 443.03-24.75 443.13-22.25Q443.38-23.25 444.55-24.2 445.73-25.15 448.33-25.15L448.33-25.15Q450.43-25.15 451.65-24.58 452.88-24 453.43-23.03 453.98-22.05 454.13-20.9 454.28-19.75 454.28-18.6L454.28-18.6 454.28-6.2Q454.28-4.65 453.98-3.15 453.68-1.65 452.43-0.65 451.18 0.35 448.33 0.35L448.33 0.35Q445.83 0.35 444.63-0.38 443.43-1.1 443.13-1.9L443.13-1.9 443.13 5.8ZM448.33-0.45L448.33-0.45Q450.28-0.45 451.33-1 452.38-1.55 452.83-2.43 453.28-3.3 453.38-4.33 453.48-5.35 453.48-6.35L453.48-6.35 453.48-18.45Q453.48-19.95 453.25-21.3 453.03-22.65 451.98-23.5 450.93-24.35 448.33-24.35L448.33-24.35Q445.93-24.35 444.83-23.48 443.73-22.6 443.43-21.2 443.13-19.8 443.13-18.15L443.13-18.15 443.13-6.35Q443.13-5.35 443.23-4.33 443.33-3.3 443.78-2.43 444.23-1.55 445.3-1 446.38-0.45 448.33-0.45ZM463.93 0L463.13 0 458.13-29.55 458.93-29.55 463.58-2.25 469.38-29.55 470.18-29.55 475.88-1.75 480.68-29.55 481.48-29.55 476.38 0 475.43 0 469.78-27.65 463.93 0ZM486.57 0L485.77 0 485.77-24.75 486.57-24.75 486.57 0ZM486.17-28.3L486.17-28.3Q485.47-28.3 485.47-29L485.47-29Q485.47-29.7 486.17-29.7L486.17-29.7Q486.87-29.7 486.87-29L486.87-29Q486.87-28.3 486.17-28.3ZM497.97 0.3L497.97 0.3Q495.37 0.3 493.72-0.95 492.07-2.2 492.07-4.95L492.07-4.95 492.07-8.3 492.87-8.3 492.87-4.95Q492.87-2.75 494.3-1.63 495.72-0.5 497.97-0.5L497.97-0.5Q500.32-0.5 501.75-1.5 503.17-2.5 503.17-4.8L503.17-4.8 503.17-6.7Q503.17-8.6 502.37-9.68 501.57-10.75 500.35-11.43 499.12-12.1 497.72-12.7L497.72-12.7Q496.17-13.4 494.87-14.1 493.57-14.8 492.8-15.83 492.02-16.85 492.02-18.5L492.02-18.5 492.02-20.2Q492.02-22.3 493.62-23.7 495.22-25.1 498.07-25.1L498.07-25.1Q500.67-25.1 502.35-23.93 504.02-22.75 504.02-20.05L504.02-20.05 504.02-16.8 503.22-16.8 503.22-19.75Q503.22-22.15 501.9-23.23 500.57-24.3 498.07-24.3L498.07-24.3Q495.57-24.3 494.2-23.05 492.82-21.8 492.82-19.75L492.82-19.75 492.82-18.85Q492.82-17.2 493.67-16.2 494.52-15.2 495.72-14.58 496.92-13.95 497.97-13.45L497.97-13.45Q499.47-12.8 500.85-12.03 502.22-11.25 503.1-10.03 503.97-8.8 503.97-6.7L503.97-6.7 503.97-4.8Q503.97-2.85 503.12-1.75 502.27-0.65 500.92-0.18 499.57 0.3 497.97 0.3ZM515.02 0.35L515.02 0.35Q512.87 0.35 511.64-0.23 510.42-0.8 509.87-1.75 509.32-2.7 509.17-3.88 509.02-5.05 509.02-6.2L509.02-6.2 509.02-18.6Q509.02-20.15 509.37-21.65 509.72-23.15 510.99-24.15 512.27-25.15 515.02-25.15L515.02-25.15Q517.82-25.15 519.07-24.2 520.32-23.25 520.64-21.75 520.97-20.25 520.97-18.6L520.97-18.6 520.97-13.15 509.82-13.15 509.82-6.35Q509.82-4.9 510.09-3.53 510.37-2.15 511.47-1.3 512.57-0.45 515.02-0.45L515.02-0.45Q517.47-0.45 518.54-1.3 519.62-2.15 519.89-3.5 520.17-4.85 520.17-6.35L520.17-6.35 520.17-8.35 520.97-8.35 520.97-6.2Q520.97-4.65 520.67-3.15 520.37-1.65 519.12-0.65 517.87 0.35 515.02 0.35ZM509.82-18.15L509.82-13.95 520.17-13.95 520.17-18.15Q520.17-19.9 519.92-21.3 519.67-22.7 518.59-23.53 517.52-24.35 515.02-24.35L515.02-24.35Q512.82-24.35 511.69-23.58 510.57-22.8 510.19-21.43 509.82-20.05 509.82-18.15L509.82-18.15ZM527.82-9.75L527.37-9.75 527.22-17.85 527.22-31.5 528.02-31.5 528.02-17.85 527.82-9.75ZM527.62 0.15L527.62 0.15Q526.82 0.15 526.82-0.65L526.82-0.65Q526.82-1.45 527.62-1.45L527.62-1.45Q528.42-1.45 528.42-0.65L528.42-0.65Q528.42 0.15 527.62 0.15Z" opacity="1" transform="matrix(1,0,0,1,0,0)" fill="#000000" class="slogan-text-1" data-fill-palette-color="secondary" id="text-1"></path></svg></g></svg></g></svg></g></svg></g></svg></g><defs></defs></svg><rect width="395.52" height="97.32943253447593" fill="none" stroke="none" visibility="hidden"></rect></g></svg></g></svg>